<svg xmlns="http://www.w3.org/2000/svg" width="512" height="512" viewBox="0 0 512 512" role="img" aria-label="Hibiki Mattermost bot avatar">
  <defs>
    <linearGradient id="bg" x1="0" y1="0" x2="1" y2="1">
      <stop offset="0%" stop-color="#1a0817" />
      <stop offset="58%" stop-color="#6f145c" />
      <stop offset="100%" stop-color="#ffb45f" />
    </linearGradient>
    <radialGradient id="glow" cx="46%" cy="30%" r="70%">
      <stop offset="0%" stop-color="#fff1db" stop-opacity="0.84" />
      <stop offset="60%" stop-color="#ffd5aa" stop-opacity="0.26" />
      <stop offset="100%" stop-color="#ffd5aa" stop-opacity="0" />
    </radialGradient>
    <filter id="shadow" x="-20%" y="-20%" width="160%" height="160%">
      <feDropShadow dx="0" dy="14" stdDeviation="18" flood-color="#12040f" flood-opacity="0.42" />
    </filter>
  </defs>

  <rect width="512" height="512" rx="118" fill="url(#bg)" />
  <circle cx="228" cy="192" r="178" fill="url(#glow)" />

  <circle cx="256" cy="256" r="186" fill="none" stroke="#fff4ea" stroke-opacity="0.12" stroke-width="12" />
  <circle cx="256" cy="256" r="150" fill="none" stroke="#fff4ea" stroke-opacity="0.22" stroke-width="5" stroke-dasharray="10 18" />

  <path d="M88 280 C124 230 160 230 196 280 C232 330 268 330 304 280 C340 230 376 230 424 280" fill="none" stroke="#ffd06f" stroke-width="32" stroke-linecap="round" stroke-linejoin="round" filter="url(#shadow)" />
  <path d="M88 228 C124 178 160 178 196 228 C232 278 268 278 304 228 C340 178 376 178 424 228" fill="none" stroke="#fff6ef" stroke-width="22" stroke-linecap="round" stroke-linejoin="round" opacity="0.95" />
  <path d="M88 332 C124 282 160 282 196 332 C232 382 268 382 304 332 C340 282 376 282 424 332" fill="none" stroke="#ff8fc3" stroke-width="18" stroke-linecap="round" stroke-linejoin="round" opacity="0.88" />

  <circle cx="256" cy="256" r="54" fill="#37102f" fill-opacity="0.72" />
  <circle cx="256" cy="256" r="28" fill="#fff3e2" />
  <circle cx="256" cy="256" r="10" fill="#ffb45f" />

  <path d="M140 128 L164 152" stroke="#ffe1ac" stroke-width="8" stroke-linecap="round" />
  <path d="M372 128 L348 152" stroke="#ffe1ac" stroke-width="8" stroke-linecap="round" />
  <path d="M140 384 L164 360" stroke="#ffca9b" stroke-width="8" stroke-linecap="round" />
  <path d="M372 384 L348 360" stroke="#ffca9b" stroke-width="8" stroke-linecap="round" />

  <circle cx="112" cy="180" r="10" fill="#fff1db" />
  <circle cx="400" cy="180" r="10" fill="#fff1db" />
  <circle cx="112" cy="332" r="10" fill="#ff8fc3" />
  <circle cx="400" cy="332" r="10" fill="#ff8fc3" />
</svg>
