<svg xmlns="http://www.w3.org/2000/svg" width="512" height="512" viewBox="0 0 512 512" role="img" aria-label="Iori Mattermost bot avatar">
  <defs>
    <linearGradient id="bg" x1="0" y1="0" x2="1" y2="1">
      <stop offset="0%" stop-color="#2a1015" />
      <stop offset="52%" stop-color="#7b2435" />
      <stop offset="100%" stop-color="#ff9a52" />
    </linearGradient>
    <radialGradient id="glow" cx="50%" cy="38%" r="65%">
      <stop offset="0%" stop-color="#fff2bf" stop-opacity="0.95" />
      <stop offset="55%" stop-color="#ffd078" stop-opacity="0.42" />
      <stop offset="100%" stop-color="#ffd078" stop-opacity="0" />
    </radialGradient>
    <linearGradient id="star" x1="0" y1="0" x2="1" y2="1">
      <stop offset="0%" stop-color="#fff7d6" />
      <stop offset="100%" stop-color="#ffca67" />
    </linearGradient>
    <filter id="shadow" x="-20%" y="-20%" width="160%" height="160%">
      <feDropShadow dx="0" dy="12" stdDeviation="16" flood-color="#16070a" flood-opacity="0.35" />
    </filter>
  </defs>

  <rect width="512" height="512" rx="118" fill="url(#bg)" />
  <circle cx="256" cy="214" r="190" fill="url(#glow)" />

  <circle cx="256" cy="256" r="186" fill="none" stroke="#fff5db" stroke-opacity="0.12" stroke-width="12" />
  <circle cx="256" cy="256" r="156" fill="none" stroke="#fff5db" stroke-opacity="0.28" stroke-width="6" stroke-dasharray="2 18" />

  <path d="M256 118 L282 198 L364 172 L314 242 L394 268 L314 294 L364 364 L282 338 L256 418 L230 338 L148 364 L198 294 L118 268 L198 242 L148 172 L230 198 Z" fill="url(#star)" filter="url(#shadow)" />
  <circle cx="256" cy="268" r="56" fill="#511826" fill-opacity="0.72" />
  <circle cx="256" cy="268" r="24" fill="#fff3cf" />

  <path d="M256 84 V132" stroke="#fff4d7" stroke-width="10" stroke-linecap="round" />
  <path d="M256 380 V428" stroke="#fff4d7" stroke-width="10" stroke-linecap="round" />
  <path d="M84 256 H132" stroke="#fff4d7" stroke-width="10" stroke-linecap="round" />
  <path d="M380 256 H428" stroke="#fff4d7" stroke-width="10" stroke-linecap="round" />

  <circle cx="256" cy="80" r="14" fill="#fff6de" />
  <circle cx="80" cy="256" r="14" fill="#ffd98e" />
  <circle cx="432" cy="256" r="14" fill="#ffd98e" />
  <circle cx="256" cy="432" r="14" fill="#fff6de" />
</svg>
