<svg xmlns="http://www.w3.org/2000/svg" width="512" height="512" viewBox="0 0 512 512" role="img" aria-label="Kanae Mattermost bot avatar">
  <defs>
    <linearGradient id="bg" x1="0" y1="0" x2="1" y2="1">
      <stop offset="0%" stop-color="#071512" />
      <stop offset="56%" stop-color="#14513f" />
      <stop offset="100%" stop-color="#8de0a6" />
    </linearGradient>
    <radialGradient id="glow" cx="52%" cy="36%" r="66%">
      <stop offset="0%" stop-color="#eefcf1" stop-opacity="0.86" />
      <stop offset="58%" stop-color="#cff5d7" stop-opacity="0.24" />
      <stop offset="100%" stop-color="#cff5d7" stop-opacity="0" />
    </radialGradient>
    <linearGradient id="hex" x1="0" y1="0" x2="1" y2="1">
      <stop offset="0%" stop-color="#f1fff5" />
      <stop offset="100%" stop-color="#8ce7a6" />
    </linearGradient>
    <filter id="shadow" x="-20%" y="-20%" width="160%" height="160%">
      <feDropShadow dx="0" dy="14" stdDeviation="18" flood-color="#04100c" flood-opacity="0.44" />
    </filter>
  </defs>

  <rect width="512" height="512" rx="118" fill="url(#bg)" />
  <circle cx="266" cy="214" r="184" fill="url(#glow)" />

  <circle cx="256" cy="256" r="186" fill="none" stroke="#f2fff5" stroke-opacity="0.12" stroke-width="12" />
  <path d="M256 118 L356 176 V292 L256 350 L156 292 V176 Z" fill="none" stroke="url(#hex)" stroke-width="22" filter="url(#shadow)" />
  <path d="M256 154 L324 194 V274 L256 314 L188 274 V194 Z" fill="none" stroke="#d8ffe0" stroke-opacity="0.42" stroke-width="8" />

  <path d="M198 258 L236 296 L320 212" fill="none" stroke="#06150f" stroke-opacity="0.46" stroke-width="28" stroke-linecap="round" stroke-linejoin="round" />
  <path d="M198 258 L236 296 L320 212" fill="none" stroke="#f3fff6" stroke-width="18" stroke-linecap="round" stroke-linejoin="round" filter="url(#shadow)" />
  <path d="M198 258 L236 296 L320 212" fill="none" stroke="#8ce7a6" stroke-width="10" stroke-linecap="round" stroke-linejoin="round" />

  <path d="M156 176 L104 146" stroke="#b2f2c0" stroke-width="8" stroke-linecap="round" />
  <path d="M356 176 L408 146" stroke="#b2f2c0" stroke-width="8" stroke-linecap="round" />
  <path d="M156 292 L104 322" stroke="#e5fff0" stroke-width="8" stroke-linecap="round" />
  <path d="M356 292 L408 322" stroke="#e5fff0" stroke-width="8" stroke-linecap="round" />

  <circle cx="96" cy="142" r="12" fill="#b2f2c0" />
  <circle cx="416" cy="142" r="12" fill="#b2f2c0" />
  <circle cx="96" cy="326" r="12" fill="#e5fff0" />
  <circle cx="416" cy="326" r="12" fill="#e5fff0" />
  <circle cx="256" cy="98" r="10" fill="#f3fff6" opacity="0.86" />
  <circle cx="256" cy="414" r="10" fill="#8ce7a6" opacity="0.9" />
</svg>
