<svg xmlns="http://www.w3.org/2000/svg" width="512" height="512" viewBox="0 0 512 512" role="img" aria-label="Ruri Mattermost bot avatar">
  <defs>
    <linearGradient id="bg" x1="0" y1="0" x2="1" y2="1">
      <stop offset="0%" stop-color="#081120" />
      <stop offset="58%" stop-color="#1f3f78" />
      <stop offset="100%" stop-color="#89d2ff" />
    </linearGradient>
    <radialGradient id="glow" cx="50%" cy="34%" r="68%">
      <stop offset="0%" stop-color="#eef6ff" stop-opacity="0.9" />
      <stop offset="58%" stop-color="#c8e0ff" stop-opacity="0.28" />
      <stop offset="100%" stop-color="#c8e0ff" stop-opacity="0" />
    </radialGradient>
    <linearGradient id="needle" x1="0" y1="0" x2="1" y2="1">
      <stop offset="0%" stop-color="#f9fbff" />
      <stop offset="100%" stop-color="#8dd5ff" />
    </linearGradient>
    <filter id="shadow" x="-20%" y="-20%" width="160%" height="160%">
      <feDropShadow dx="0" dy="14" stdDeviation="18" flood-color="#040913" flood-opacity="0.42" />
    </filter>
  </defs>

  <rect width="512" height="512" rx="118" fill="url(#bg)" />
  <circle cx="256" cy="220" r="186" fill="url(#glow)" />

  <circle cx="256" cy="256" r="186" fill="none" stroke="#eff7ff" stroke-opacity="0.12" stroke-width="12" />
  <circle cx="256" cy="256" r="154" fill="none" stroke="#eff7ff" stroke-opacity="0.24" stroke-width="6" stroke-dasharray="8 18" />
  <circle cx="256" cy="256" r="120" fill="none" stroke="#d7ebff" stroke-opacity="0.46" stroke-width="10" />

  <path d="M256 122 L288 224 L390 256 L288 288 L256 390 L224 288 L122 256 L224 224 Z" fill="url(#needle)" filter="url(#shadow)" />
  <path d="M256 164 L278 234 L348 256 L278 278 L256 348 L234 278 L164 256 L234 234 Z" fill="#113b78" fill-opacity="0.72" />
  <circle cx="256" cy="256" r="36" fill="#f8fbff" />
  <circle cx="256" cy="256" r="14" fill="#7abfff" />

  <path d="M256 76 V118" stroke="#f3f8ff" stroke-width="10" stroke-linecap="round" />
  <path d="M256 394 V436" stroke="#f3f8ff" stroke-width="10" stroke-linecap="round" />
  <path d="M76 256 H118" stroke="#f3f8ff" stroke-width="10" stroke-linecap="round" />
  <path d="M394 256 H436" stroke="#f3f8ff" stroke-width="10" stroke-linecap="round" />

  <path d="M144 158 C174 126 214 108 256 106" fill="none" stroke="#8ad9ff" stroke-width="8" stroke-linecap="round" opacity="0.8" />
  <path d="M354 158 C324 126 288 108 256 106" fill="none" stroke="#8ad9ff" stroke-width="8" stroke-linecap="round" opacity="0.72" />
  <path d="M144 354 C174 386 214 404 256 406" fill="none" stroke="#b8ebff" stroke-width="8" stroke-linecap="round" opacity="0.74" />
  <path d="M354 354 C324 386 288 404 256 406" fill="none" stroke="#b8ebff" stroke-width="8" stroke-linecap="round" opacity="0.68" />
</svg>
