<svg xmlns="http://www.w3.org/2000/svg" width="512" height="512" viewBox="0 0 512 512" role="img" aria-label="Tsumugi Mattermost bot avatar">
  <defs>
    <linearGradient id="bg" x1="0" y1="0" x2="1" y2="1">
      <stop offset="0%" stop-color="#081c24" />
      <stop offset="58%" stop-color="#0b5d68" />
      <stop offset="100%" stop-color="#7ce8d8" />
    </linearGradient>
    <radialGradient id="glow" cx="42%" cy="28%" r="70%">
      <stop offset="0%" stop-color="#e9fff8" stop-opacity="0.88" />
      <stop offset="55%" stop-color="#b8fff0" stop-opacity="0.3" />
      <stop offset="100%" stop-color="#b8fff0" stop-opacity="0" />
    </radialGradient>
    <filter id="shadow" x="-20%" y="-20%" width="160%" height="160%">
      <feDropShadow dx="0" dy="14" stdDeviation="16" flood-color="#031015" flood-opacity="0.35" />
    </filter>
  </defs>

  <rect width="512" height="512" rx="118" fill="url(#bg)" />
  <circle cx="216" cy="184" r="176" fill="url(#glow)" />
  <circle cx="256" cy="256" r="186" fill="none" stroke="#e8fff8" stroke-opacity="0.14" stroke-width="12" />
  <circle cx="256" cy="256" r="154" fill="none" stroke="#e8fff8" stroke-opacity="0.22" stroke-width="5" stroke-dasharray="8 16" />

  <path d="M86 310 C150 370 222 374 278 330 C332 288 366 212 426 190" fill="none" stroke="#fef2be" stroke-width="44" stroke-linecap="round" stroke-linejoin="round" filter="url(#shadow)" />
  <path d="M90 206 C154 146 224 144 280 186 C334 228 366 304 428 326" fill="none" stroke="#f6f7ff" stroke-width="34" stroke-linecap="round" stroke-linejoin="round" opacity="0.92" />
  <path d="M134 144 C198 206 224 262 256 382" fill="none" stroke="#8ff5e6" stroke-width="26" stroke-linecap="round" stroke-linejoin="round" opacity="0.92" />
  <path d="M378 126 C310 186 286 246 254 368" fill="none" stroke="#4ed2ff" stroke-width="20" stroke-linecap="round" stroke-linejoin="round" opacity="0.78" />

  <path d="M256 168 L280 232 L344 256 L280 280 L256 344 L232 280 L168 256 L232 232 Z" fill="#fbfff4" filter="url(#shadow)" />
  <path d="M256 196 L270 238 L312 252 L270 266 L256 308 L242 266 L200 252 L242 238 Z" fill="#63f4d1" />

  <circle cx="118" cy="342" r="10" fill="#fef2be" />
  <circle cx="154" cy="364" r="8" fill="#fef2be" />
  <circle cx="392" cy="154" r="10" fill="#ddfff6" />
  <circle cx="420" cy="182" r="8" fill="#ddfff6" />
</svg>
