<svg width="256" height="256" viewBox="0 0 256 256" fill="none" xmlns="http://www.w3.org/2000/svg">
  <defs>
    <linearGradient id="bg" x1="18" y1="18" x2="236" y2="238" gradientUnits="userSpaceOnUse">
      <stop offset="0" stop-color="#06111B"/>
      <stop offset="0.52" stop-color="#112740"/>
      <stop offset="1" stop-color="#114A47"/>
    </linearGradient>
    <linearGradient id="panel" x1="30" y1="30" x2="226" y2="226" gradientUnits="userSpaceOnUse">
      <stop offset="0" stop-color="#FFFFFF" stop-opacity="0.12"/>
      <stop offset="1" stop-color="#FFFFFF" stop-opacity="0.04"/>
    </linearGradient>
    <linearGradient id="line" x1="116" y1="76" x2="216" y2="180" gradientUnits="userSpaceOnUse">
      <stop offset="0" stop-color="#A5F3FC"/>
      <stop offset="1" stop-color="#86F5D1"/>
    </linearGradient>
    <radialGradient id="glowTop" cx="0" cy="0" r="1" gradientUnits="userSpaceOnUse" gradientTransform="translate(198 46) rotate(126.615) scale(118.612 99.4162)">
      <stop offset="0" stop-color="#86F5D1" stop-opacity="0.32"/>
      <stop offset="1" stop-color="#86F5D1" stop-opacity="0"/>
    </radialGradient>
    <radialGradient id="glowBottom" cx="0" cy="0" r="1" gradientUnits="userSpaceOnUse" gradientTransform="translate(40 236) rotate(-33.1113) scale(114.914 91.9462)">
      <stop offset="0" stop-color="#38BDF8" stop-opacity="0.2"/>
      <stop offset="1" stop-color="#38BDF8" stop-opacity="0"/>
    </radialGradient>
    <filter id="shadow" x="16" y="20" width="224" height="220" filterUnits="userSpaceOnUse" color-interpolation-filters="sRGB">
      <feDropShadow dx="0" dy="12" stdDeviation="10" flood-color="#020E16" flood-opacity="0.42"/>
    </filter>
  </defs>

  <rect width="256" height="256" rx="56" fill="url(#bg)"/>
  <rect width="256" height="256" rx="56" fill="url(#glowTop)"/>
  <rect width="256" height="256" rx="56" fill="url(#glowBottom)"/>

  <g opacity="0.16">
    <path d="M0 60H256" stroke="#D7FBFF" stroke-width="1.5"/>
    <path d="M0 128H256" stroke="#D7FBFF" stroke-width="1.5"/>
    <path d="M0 196H256" stroke="#D7FBFF" stroke-width="1.5"/>
    <path d="M60 0V256" stroke="#D7FBFF" stroke-width="1.5"/>
    <path d="M128 0V256" stroke="#D7FBFF" stroke-width="1.5"/>
    <path d="M196 0V256" stroke="#D7FBFF" stroke-width="1.5"/>
  </g>

  <g filter="url(#shadow)">
    <rect x="24" y="24" width="208" height="208" rx="44" fill="url(#panel)" stroke="#D8F4FF" stroke-opacity="0.18"/>
  </g>

  <g>
    <circle cx="90" cy="128" r="42" fill="#09131D" fill-opacity="0.36" stroke="#A5F3FC" stroke-opacity="0.38" stroke-width="2"/>
    <circle cx="90" cy="128" r="31" fill="#0B1D28" fill-opacity="0.68" stroke="#A5F3FC" stroke-opacity="0.24" stroke-width="2"/>

    <path d="M76 144L89 112" stroke="#E6FCFF" stroke-width="6" stroke-linecap="round"/>
    <path d="M90 148L104 113" stroke="#E6FCFF" stroke-width="6" stroke-linecap="round"/>
    <path d="M105 143L117 114" stroke="#E6FCFF" stroke-width="6" stroke-linecap="round"/>
  </g>

  <g opacity="0.96" stroke="url(#line)" stroke-width="7" stroke-linecap="round" stroke-linejoin="round">
    <path d="M126 90H160"/>
    <path d="M160 90L175 76"/>
    <path d="M126 128H182"/>
    <path d="M126 166H160"/>
    <path d="M160 166L175 180"/>
  </g>

  <g>
    <rect x="175" y="62" width="36" height="28" rx="12" fill="#0D7C89"/>
    <rect x="182" y="114" width="46" height="28" rx="14" fill="#0B8EA0"/>
    <rect x="175" y="166" width="36" height="28" rx="12" fill="#13A97C"/>

    <rect x="181" y="68" width="8" height="8" rx="4" fill="#E8FBFF" fill-opacity="0.94"/>
    <rect x="191" y="68" width="8" height="8" rx="4" fill="#E8FBFF" fill-opacity="0.82"/>
    <rect x="189" y="120" width="8" height="8" rx="4" fill="#E8FBFF" fill-opacity="0.94"/>
    <rect x="199" y="120" width="8" height="8" rx="4" fill="#E8FBFF" fill-opacity="0.82"/>
    <rect x="181" y="172" width="8" height="8" rx="4" fill="#E8FBFF" fill-opacity="0.94"/>
    <rect x="191" y="172" width="8" height="8" rx="4" fill="#E8FBFF" fill-opacity="0.82"/>
  </g>
</svg>
