<svg width="1400" height="520" viewBox="0 0 1400 520" fill="none" xmlns="http://www.w3.org/2000/svg">
  <defs>
    <linearGradient id="bg" x1="120" y1="40" x2="1260" y2="480" gradientUnits="userSpaceOnUse">
      <stop offset="0" stop-color="#0B1220"/>
      <stop offset="0.55" stop-color="#14233D"/>
      <stop offset="1" stop-color="#0D6A7D"/>
    </linearGradient>
    <linearGradient id="panel" x1="0" y1="0" x2="1" y2="1">
      <stop offset="0" stop-color="#FFFFFF" stop-opacity="0.12"/>
      <stop offset="1" stop-color="#FFFFFF" stop-opacity="0.05"/>
    </linearGradient>
    <filter id="shadow" x="-20" y="-20" width="1440" height="560" filterUnits="userSpaceOnUse" color-interpolation-filters="sRGB">
      <feDropShadow dx="0" dy="18" stdDeviation="18" flood-color="#04111C" flood-opacity="0.35"/>
    </filter>
  </defs>

  <rect width="1400" height="520" rx="28" fill="url(#bg)"/>

  <g opacity="0.18">
    <path d="M0 110H1400" stroke="#D4F8FF" stroke-width="1"/>
    <path d="M0 210H1400" stroke="#D4F8FF" stroke-width="1"/>
    <path d="M0 310H1400" stroke="#D4F8FF" stroke-width="1"/>
    <path d="M0 410H1400" stroke="#D4F8FF" stroke-width="1"/>
    <path d="M170 0V520" stroke="#D4F8FF" stroke-width="1"/>
    <path d="M420 0V520" stroke="#D4F8FF" stroke-width="1"/>
    <path d="M670 0V520" stroke="#D4F8FF" stroke-width="1"/>
    <path d="M920 0V520" stroke="#D4F8FF" stroke-width="1"/>
    <path d="M1170 0V520" stroke="#D4F8FF" stroke-width="1"/>
  </g>

  <g filter="url(#shadow)">
    <rect x="56" y="56" width="1288" height="408" rx="28" fill="url(#panel)" stroke="#D8F4FF" stroke-opacity="0.18"/>
  </g>

  <g>
    <rect x="92" y="92" width="228" height="38" rx="19" fill="#9FE8F7" fill-opacity="0.16" stroke="#9FE8F7" stroke-opacity="0.5"/>
    <text x="206" y="117" fill="#DDFBFF" font-size="18" text-anchor="middle" font-family="Segoe UI, Arial, sans-serif" letter-spacing="1.6">PODMAN KUBE PLAY</text>
  </g>

  <g>
    <text x="92" y="186" fill="#F8FDFF" font-size="64" font-weight="700" font-family="Segoe UI, Arial, sans-serif">OpenClaw Podman Starter</text>
    <text x="92" y="232" fill="#CDEDF4" font-size="24" font-family="Segoe UI, Arial, sans-serif">
      Multi-instance pods, isolated state, and validated model runs.
    </text>
    <text x="92" y="266" fill="#CDEDF4" font-size="24" font-family="Segoe UI, Arial, sans-serif">
      Verified with Gemma and GLM on real Podman pods.
    </text>
  </g>

  <g>
    <rect x="92" y="306" width="246" height="42" rx="21" fill="#FFFFFF" fill-opacity="0.10"/>
    <text x="215" y="333" fill="#F5FCFF" font-size="18" text-anchor="middle" font-family="Segoe UI, Arial, sans-serif">one instance = one pod</text>

    <rect x="352" y="306" width="220" height="42" rx="21" fill="#FFFFFF" fill-opacity="0.10"/>
    <text x="462" y="333" fill="#F5FCFF" font-size="18" text-anchor="middle" font-family="Segoe UI, Arial, sans-serif">Gemma + GLM verified</text>

    <rect x="586" y="306" width="218" height="42" rx="21" fill="#FFFFFF" fill-opacity="0.10"/>
    <text x="695" y="333" fill="#F5FCFF" font-size="18" text-anchor="middle" font-family="Segoe UI, Arial, sans-serif">Windows + WSL aware</text>
  </g>

  <g>
    <path d="M928 178H1004" stroke="#8CEAFF" stroke-width="4" stroke-linecap="round"/>
    <path d="M1004 178L1030 156" stroke="#8CEAFF" stroke-width="4" stroke-linecap="round"/>
    <path d="M1004 178L1030 200" stroke="#8CEAFF" stroke-width="4" stroke-linecap="round"/>

    <path d="M928 262H1004" stroke="#8CEAFF" stroke-width="4" stroke-linecap="round"/>
    <path d="M1004 262L1030 240" stroke="#8CEAFF" stroke-width="4" stroke-linecap="round"/>
    <path d="M1004 262L1030 284" stroke="#8CEAFF" stroke-width="4" stroke-linecap="round"/>

    <path d="M928 346H1004" stroke="#8CEAFF" stroke-width="4" stroke-linecap="round"/>
    <path d="M1004 346L1030 324" stroke="#8CEAFF" stroke-width="4" stroke-linecap="round"/>
    <path d="M1004 346L1030 368" stroke="#8CEAFF" stroke-width="4" stroke-linecap="round"/>
  </g>

  <g>
    <rect x="1038" y="130" width="252" height="96" rx="22" fill="#08131E" fill-opacity="0.48" stroke="#7DE4F8" stroke-opacity="0.45"/>
    <rect x="1064" y="156" width="40" height="40" rx="10" fill="#0F7C8C"/>
    <text x="1134" y="166" fill="#E8FBFF" font-size="18" font-family="Segoe UI, Arial, sans-serif">Instance 1</text>
    <text x="1134" y="192" fill="#BCE7EF" font-size="16" font-family="Segoe UI, Arial, sans-serif">openclaw-1-pod</text>
    <text x="1134" y="212" fill="#BCE7EF" font-size="16" font-family="Segoe UI, Arial, sans-serif">127.0.0.1:18789</text>

    <rect x="1038" y="236" width="252" height="96" rx="22" fill="#08131E" fill-opacity="0.48" stroke="#7DE4F8" stroke-opacity="0.45"/>
    <rect x="1064" y="262" width="40" height="40" rx="10" fill="#0C8AA0"/>
    <text x="1134" y="272" fill="#E8FBFF" font-size="18" font-family="Segoe UI, Arial, sans-serif">Instance 2</text>
    <text x="1134" y="298" fill="#BCE7EF" font-size="16" font-family="Segoe UI, Arial, sans-serif">openclaw-2-pod</text>
    <text x="1134" y="318" fill="#BCE7EF" font-size="16" font-family="Segoe UI, Arial, sans-serif">127.0.0.1:18791</text>

    <rect x="1038" y="342" width="252" height="96" rx="22" fill="#08131E" fill-opacity="0.48" stroke="#7DE4F8" stroke-opacity="0.45"/>
    <rect x="1064" y="368" width="40" height="40" rx="10" fill="#09A8B4"/>
    <text x="1134" y="378" fill="#E8FBFF" font-size="18" font-family="Segoe UI, Arial, sans-serif">Instance 3</text>
    <text x="1134" y="404" fill="#BCE7EF" font-size="16" font-family="Segoe UI, Arial, sans-serif">openclaw-3-pod</text>
    <text x="1134" y="424" fill="#BCE7EF" font-size="16" font-family="Segoe UI, Arial, sans-serif">127.0.0.1:18793</text>
  </g>
</svg>
